<?xml version="1.0" encoding="UTF-8" standalone="no"?>
<svg
   xmlns:dc="http://purl.org/dc/elements/1.1/"
   xmlns:cc="http://creativecommons.org/ns#"
   xmlns:rdf="http://www.w3.org/1999/02/22-rdf-syntax-ns#"
   xmlns:svg="http://www.w3.org/2000/svg"
   xmlns="http://www.w3.org/2000/svg"
   xmlns:sodipodi="http://sodipodi.sourceforge.net/DTD/sodipodi-0.dtd"
   xmlns:inkscape="http://www.inkscape.org/namespaces/inkscape"
   width="80"
   height="65"
   version="1.1"
   id="svg12"
   sodipodi:docname="arrow-right.svg"
   inkscape:version="0.92.4 (5da689c313, 2019-01-14)">
  <metadata
     id="metadata18">
    <rdf:RDF>
      <cc:Work
         rdf:about="">
        <dc:format>image/svg+xml</dc:format>
        <dc:type
           rdf:resource="http://purl.org/dc/dcmitype/StillImage" />
        <dc:title />
      </cc:Work>
    </rdf:RDF>
  </metadata>
  <defs
     id="defs16" />
  <sodipodi:namedview
     pagecolor="#ffffff"
     bordercolor="#666666"
     borderopacity="1"
     objecttolerance="10"
     gridtolerance="10"
     guidetolerance="10"
     inkscape:pageopacity="0"
     inkscape:pageshadow="2"
     inkscape:window-width="1920"
     inkscape:window-height="1017"
     id="namedview14"
     showgrid="false"
     inkscape:zoom="2.4583333"
     inkscape:cx="-50.033899"
     inkscape:cy="48"
     inkscape:window-x="2552"
     inkscape:window-y="-8"
     inkscape:window-maximized="1"
     inkscape:current-layer="svg12" />
  <g
     id="g5"
     transform="translate(0,-31)">
    <title
       id="title2">background</title>
    <rect
       id="canvas_background"
       height="402"
       width="582"
       y="-1"
       x="-1"
       style="fill:none" />
  </g>
  <g
     id="g10"
     transform="matrix(1,0,0,1.0067043,-7.0020835,-15.319439)"
     style="fill:#d3d3d3;fill-opacity:1">
    <title
       id="title7">Layer 1</title>
    <path
       id="svg_1"
       d="M 11.002083,51.501041 H 73.346085 L 51.890084,72.957038 c -1.562,1.561996 -1.562,4.095001 -9.99e-4,5.655998 1.562,1.562004 4.096001,1.562004 5.657997,0 L 85.830087,50.329039 v 0 c 0.185997,-0.186001 0.351997,-0.390999 0.497993,-0.608997 0.067,-0.101002 0.114006,-0.210003 0.172005,-0.315002 0.066,-0.124001 0.141998,-0.242001 0.195,-0.373001 0.057,-0.134998 0.089,-0.274998 0.128998,-0.414997 0.03301,-0.111 0.076,-0.217003 0.099,-0.331001 0.052,-0.259998 0.079,-0.521999 0.079,-0.785 v 0 c 0,-0.003 -9.99e-4,-0.006 -9.99e-4,-0.009 -9.99e-4,-0.259003 -0.027,-0.519001 -0.078,-0.774002 -0.02399,-0.119999 -0.069,-0.230999 -0.103996,-0.348999 -0.039,-0.132999 -0.069,-0.268002 -0.123001,-0.396999 -0.058,-0.139 -0.136002,-0.264999 -0.208,-0.396 -0.054,-0.098 -0.097,-0.198002 -0.158997,-0.292 -0.146006,-0.221 -0.314005,-0.427001 -0.501009,-0.614001 L 57.546083,16.389042 c -1.562,-1.562 -4.094997,-1.562 -5.656998,-0.001 -1.562,1.562 -1.562,4.095001 0,5.658001 l 21.456001,21.455 H 11.002084 c -2.209,0 -4,1.791 -4,4 0,2.209 1.791,4 4,4 z"
       inkscape:connector-curvature="0"
       style="fill:#d3d3d3;fill-opacity:1" />
  </g>
</svg>
