<?xml version="1.0" encoding="UTF-8" standalone="no"?>
<svg
   xmlns:dc="http://purl.org/dc/elements/1.1/"
   xmlns:cc="http://creativecommons.org/ns#"
   xmlns:rdf="http://www.w3.org/1999/02/22-rdf-syntax-ns#"
   xmlns:svg="http://www.w3.org/2000/svg"
   xmlns="http://www.w3.org/2000/svg"
   xmlns:sodipodi="http://sodipodi.sourceforge.net/DTD/sodipodi-0.dtd"
   xmlns:inkscape="http://www.inkscape.org/namespaces/inkscape"
   height="384"
   id="Layer_1"
   version="1.1"
   viewBox="0 0 384 384"
   width="384"
   xml:space="preserve"
   sodipodi:docname="iconfinder_211651_close_round_icon.svg"
   inkscape:version="0.92.4 (5da689c313, 2019-01-14)"><metadata
     id="metadata9"><rdf:RDF><cc:Work
         rdf:about=""><dc:format>image/svg+xml</dc:format><dc:type
           rdf:resource="http://purl.org/dc/dcmitype/StillImage" /><dc:title></dc:title></cc:Work></rdf:RDF></metadata><defs
     id="defs7" /><sodipodi:namedview
     pagecolor="#ffffff"
     bordercolor="#666666"
     borderopacity="1"
     objecttolerance="10"
     gridtolerance="10"
     guidetolerance="10"
     inkscape:pageopacity="0"
     inkscape:pageshadow="2"
     inkscape:window-width="2560"
     inkscape:window-height="1017"
     id="namedview5"
     showgrid="false"
     inkscape:zoom="0.4609375"
     inkscape:cx="256"
     inkscape:cy="256"
     inkscape:window-x="-8"
     inkscape:window-y="107"
     inkscape:window-maximized="1"
     inkscape:current-layer="Layer_1" /><path
     d="M 373.5,322.6 242.9,192 373.5,61.4 c 14.1,-14.1 14.1,-36.8 0,-50.9 -14.1,-14.1 -36.8,-14.1 -50.9,0 L 192,141.1 61.4,10.5 C 47.3,-3.6 24.6,-3.6 10.5,10.5 -3.6,24.6 -3.6,47.3 10.5,61.4 L 141.1,192 10.5,322.6 c -14.1,14.1 -14.1,36.8 0,50.9 14.1,14.1 36.8,14.1 50.9,0 L 192,242.9 322.6,373.5 c 14.1,14.1 36.8,14.1 50.9,0 14,-14.1 14,-36.9 0,-50.9 z"
     id="path2"
     inkscape:connector-curvature="0"
     style="fill:#0d2232;fill-opacity:1" /></svg>